<svg xmlns="http://www.w3.org/2000/svg" xmlns:xlink="http://www.w3.org/1999/xlink" id="Layer_1" x="0px" y="0px" width="290.984px" height="220.489px" viewBox="0 0 290.984 220.489" xml:space="preserve"><g>	<path d="M106.606,115.102c0,9.289-3.341,16.607-10.028,21.956c-6.684,5.349-15.985,8.022-27.9,8.022  c-10.978,0-20.689-2.066-29.134-6.193V118.62c6.94,3.096,12.817,5.275,17.627,6.543c4.808,1.267,9.207,1.902,13.195,1.902  c4.784,0,8.455-0.917,11.012-2.747c2.557-1.829,3.837-4.549,3.837-8.163c0-2.016-0.563-3.813-1.688-5.382  c-1.127-1.571-2.778-3.085-4.963-4.538c-2.179-1.456-6.626-3.778-13.334-6.97c-6.285-2.956-11.004-5.793-14.145-8.512  c-3.146-2.722-5.652-5.889-7.529-9.503c-1.878-3.608-2.814-7.831-2.814-12.667c0-9.098,3.081-16.253,9.253-21.46  c6.17-5.208,14.694-7.814,25.581-7.814c5.348,0,10.447,0.636,15.307,1.903c4.853,1.267,9.931,3.048,15.234,5.348l-7.037,16.957  c-5.489-2.252-10.026-3.822-13.618-4.712c-3.586-0.892-7.119-1.34-10.59-1.34c-4.129,0-7.296,0.963-9.5,2.888  c-2.204,1.922-3.309,4.43-3.309,7.527c0,1.925,0.445,3.603,1.337,5.033c0.894,1.43,2.313,2.815,4.261,4.152  c1.943,1.337,6.553,3.741,13.825,7.214c9.615,4.597,16.207,9.205,19.773,13.827S106.606,108.392,106.606,115.102z"></path>	<path d="M236.977,70.977c-4.785-4.971-11.801-7.459-21.041-7.459c-10.415,0-18.016,3.851-22.801,11.541h-1.126l0.493-6.333  c0.326-6.423,0.492-10.505,0.492-12.245V34.175h-21.463v34.06c2.258,1.61,4.301,3.606,6.091,6.052  c5.253,7.178,7.882,17.148,7.882,29.905c0,8.398-1.232,15.695-3.693,21.889c-2.42,6.076-5.854,10.707-10.278,13.938v3.653h21.463  v-37.014c0-9.148,1.337-15.763,4.012-19.845c2.674-4.082,7.014-6.125,13.018-6.125c8.445,0,12.667,5.68,12.667,17.03v45.955h21.465  V92.369C244.154,83.081,241.762,75.953,236.977,70.977z"></path>	<path d="M169.414,74.489c-5.255-7.178-12.525-10.771-21.814-10.771c-9.853,0-17.289,3.896-22.309,11.682h-0.984L121.281,65.2  h-17.452v27.126c2.542,1.922,4.588,3.851,6.077,5.779c3.565,4.622,5.349,10.286,5.349,16.996c0,9.289-3.342,16.606-10.029,21.956  c-0.444,0.355-0.929,0.667-1.396,1v40.441h21.463v-31.881c0-1.031-0.374-4.832-1.125-11.4h1.125  c5.256,6.709,12.501,10.066,21.745,10.066c6.145,0,11.493-1.621,16.045-4.859c4.549-3.236,8.056-7.948,10.521-14.141  c2.46-6.193,3.693-13.49,3.693-21.889C177.296,91.638,174.667,81.667,169.414,74.489z M140.984,127.898  c-5.443,0-9.418-1.83-11.93-5.489c-2.511-3.658-3.764-9.711-3.764-18.156v-2.319c0.094-7.507,1.359-12.892,3.801-16.151  c2.44-3.26,6.308-4.892,11.611-4.892c5.065,0,8.781,1.937,11.151,5.807c2.37,3.871,3.556,9.675,3.556,17.416  C155.41,119.972,150.6,127.898,140.984,127.898z"></path></g><g>	<path d="M144.19,165.549c0,1.672-0.602,2.988-1.805,3.951s-2.878,1.444-5.022,1.444c-1.976,0-3.724-0.372-5.243-1.114v-3.648  c1.25,0.557,2.308,0.949,3.173,1.178c0.866,0.229,1.657,0.342,2.375,0.342c0.86,0,1.521-0.164,1.981-0.494  c0.461-0.328,0.69-0.818,0.69-1.469c0-0.363-0.102-0.686-0.304-0.969c-0.203-0.283-0.5-0.555-0.894-0.816  c-0.394-0.263-1.192-0.681-2.399-1.254c-1.133-0.533-1.98-1.043-2.548-1.533c-0.564-0.49-1.018-1.061-1.354-1.711  c-0.338-0.649-0.507-1.41-0.507-2.279c0-1.639,0.555-2.926,1.665-3.863c1.109-0.938,2.646-1.406,4.604-1.406  c0.963,0,1.881,0.114,2.755,0.342c0.874,0.229,1.788,0.549,2.743,0.963l-1.267,3.054c-0.988-0.406-1.807-0.688-2.451-0.849  c-0.646-0.16-1.282-0.24-1.906-0.24c-0.743,0-1.313,0.173-1.71,0.519c-0.396,0.347-0.596,0.798-0.596,1.354  c0,0.347,0.08,0.648,0.24,0.906s0.416,0.506,0.767,0.748c0.351,0.24,1.18,0.674,2.489,1.297c1.729,0.828,2.917,1.658,3.56,2.489  C143.87,163.321,144.19,164.34,144.19,165.549z"></path>	<path d="M153.653,170.945c-2.279,0-4.063-0.629-5.346-1.887c-1.284-1.259-1.926-3.04-1.926-5.347c0-2.373,0.594-4.207,1.78-5.502  c1.186-1.297,2.825-1.944,4.921-1.944c2.001,0,3.56,0.569,4.674,1.71c1.115,1.141,1.672,2.715,1.672,4.725v1.875h-9.133  c0.042,1.098,0.367,1.955,0.976,2.571c0.608,0.617,1.461,0.925,2.56,0.925c0.853,0,1.659-0.089,2.42-0.266  c0.76-0.178,1.554-0.46,2.381-0.85v2.989c-0.676,0.339-1.397,0.589-2.166,0.755C155.696,170.864,154.759,170.945,153.653,170.945z   M153.108,159.013c-0.818,0-1.461,0.26-1.926,0.778c-0.464,0.521-0.729,1.256-0.798,2.211h5.422  c-0.018-0.955-0.267-1.691-0.748-2.211C154.577,159.272,153.927,159.013,153.108,159.013z"></path>	<path d="M170.475,156.264c0.523,0,0.958,0.037,1.305,0.113L171.488,160c-0.313-0.084-0.691-0.127-1.141-0.127  c-1.231,0-2.193,0.316-2.881,0.951c-0.688,0.633-1.033,1.52-1.033,2.659v7.208h-3.863V156.53h2.928l0.568,2.381h0.19  c0.438-0.793,1.032-1.433,1.779-1.918C168.784,156.506,169.597,156.264,170.475,156.264z"></path>	<path d="M177.721,170.691l-5.396-14.162h4.041l2.734,8.069c0.306,1.021,0.494,1.988,0.57,2.9h0.076  c0.042-0.811,0.231-1.777,0.569-2.9l2.724-8.069h4.041l-5.396,14.162H177.721z"></path>	<path d="M188.943,152.87c0-1.259,0.7-1.888,2.104-1.888c1.4,0,2.103,0.629,2.103,1.888c0,0.6-0.176,1.065-0.524,1.399  c-0.352,0.333-0.876,0.5-1.577,0.5C189.644,154.769,188.943,154.135,188.943,152.87z M192.971,170.691h-3.863V156.53h3.863V170.691  z"></path>	<path d="M202.775,170.945c-4.407,0-6.611-2.419-6.611-7.258c0-2.407,0.6-4.245,1.799-5.517c1.199-1.271,2.918-1.905,5.155-1.905  c1.639,0,3.106,0.321,4.407,0.962l-1.14,2.988c-0.608-0.244-1.174-0.444-1.697-0.602c-0.523-0.156-1.048-0.234-1.57-0.234  c-2.011,0-3.016,1.428-3.016,4.281c0,2.771,1.005,4.155,3.016,4.155c0.742,0,1.432-0.099,2.064-0.297  c0.633-0.199,1.268-0.509,1.899-0.931v3.306c-0.625,0.397-1.256,0.671-1.895,0.823C204.549,170.87,203.746,170.945,202.775,170.945  z"></path>	<path d="M210.198,152.87c0-1.259,0.699-1.888,2.103-1.888c1.401,0,2.103,0.629,2.103,1.888c0,0.6-0.176,1.065-0.524,1.399  c-0.352,0.333-0.876,0.5-1.577,0.5C210.898,154.769,210.198,154.135,210.198,152.87z M214.226,170.691h-3.863V156.53h3.863V170.691  z"></path>	<path d="M231.149,163.584c0,2.306-0.607,4.108-1.823,5.41c-1.217,1.301-2.909,1.95-5.079,1.95c-1.36,0-2.561-0.298-3.599-0.894  c-1.039-0.594-1.837-1.449-2.395-2.564s-0.836-2.414-0.836-3.9c0-2.314,0.604-4.112,1.812-5.396  c1.208-1.283,2.905-1.925,5.092-1.925c1.36,0,2.56,0.295,3.599,0.886c1.039,0.592,1.837,1.439,2.395,2.547  C230.87,160.803,231.149,162.099,231.149,163.584z M221.357,163.584c0,1.402,0.23,2.461,0.69,3.18  c0.46,0.718,1.21,1.076,2.248,1.076c1.03,0,1.771-0.355,2.224-1.069c0.451-0.713,0.678-1.774,0.678-3.187  c0-1.401-0.229-2.453-0.685-3.153c-0.456-0.701-1.203-1.052-2.241-1.052c-1.03,0-1.772,0.35-2.229,1.045  C221.586,161.122,221.357,162.174,221.357,163.584z"></path>	<path d="M244.222,166.486c0,1.453-0.505,2.56-1.514,3.319c-1.01,0.76-2.521,1.14-4.529,1.14c-1.03,0-1.908-0.069-2.634-0.209  c-0.728-0.14-1.406-0.344-2.04-0.614v-3.191c0.718,0.338,1.526,0.621,2.426,0.849c0.9,0.228,1.691,0.343,2.375,0.343  c1.401,0,2.104-0.406,2.104-1.217c0-0.304-0.094-0.551-0.278-0.74c-0.186-0.19-0.507-0.406-0.963-0.646  c-0.456-0.241-1.063-0.521-1.824-0.842c-1.089-0.457-1.889-0.879-2.4-1.268c-0.511-0.389-0.882-0.834-1.113-1.336  c-0.232-0.502-0.35-1.121-0.35-1.855c0-1.258,0.488-2.231,1.463-2.92c0.977-0.688,2.358-1.031,4.148-1.031  c1.706,0,3.365,0.372,4.979,1.113l-1.164,2.787c-0.711-0.304-1.373-0.553-1.989-0.748c-0.616-0.194-1.245-0.291-1.888-0.291  c-1.141,0-1.711,0.309-1.711,0.924c0,0.347,0.186,0.646,0.553,0.9c0.366,0.252,1.171,0.629,2.413,1.127  c1.104,0.447,1.916,0.865,2.432,1.254c0.515,0.389,0.895,0.836,1.14,1.342C244.099,165.181,244.222,165.786,244.222,166.486z"></path></g></svg>